<svg width="1200" height="630" viewBox="0 0 1200 630" xmlns="http://www.w3.org/2000/svg"><defs><pattern id="satori_pattern_id_0" x="0" y="0" width="1" height="1" patternUnits="objectBoundingBox"><linearGradient id="satori_biid_0" x1="0" y1="0" x2="0" y2="1"><stop offset="0%" stop-color="#C1929D"/><stop offset="100%" stop-color="#767BA3"/></linearGradient><rect x="0" y="0" width="1200" height="630" fill="url(#satori_biid_0)"/></pattern></defs><mask id="satori_om-id"><rect x="0" y="0" width="1200" height="630" fill="#fff"/></mask><rect x="0" y="0" width="1200" height="630" fill="url(#satori_pattern_id_0)"/><mask id="satori_om-id-0"><rect x="456" y="305" width="288" height="60" fill="#fff"/></mask><path fill="black" d="M459.2 351.8L459.2 315.4L468.6 315.4L478.7 339.9L479.1 339.9L489.1 315.4L498.6 315.4L498.6 351.8L491.1 351.8L491.1 328.1L490.8 328.1L481.4 351.6L476.3 351.6L466.9 328.0L466.6 328.0L466.6 351.8L459.2 351.8ZM509.4 362.0L509.4 362.0Q508.0 362.0 506.7 361.8Q505.5 361.6 504.7 361.2L504.7 361.2L506.4 355.6Q507.7 356.0 508.8 356.0Q509.9 356.1 510.6 355.5Q511.4 355.0 511.9 353.7L511.9 353.7L512.4 352.6L502.6 324.5L510.5 324.5L516.2 344.6L516.5 344.6L522.2 324.5L530.2 324.5L519.6 354.7Q518.8 356.9 517.5 358.6Q516.2 360.2 514.2 361.1Q512.2 362.0 509.4 362.0ZM566.1 327.2L558.3 327.2Q557.9 325.9 557.3 324.9Q556.6 323.9 555.6 323.2Q554.7 322.5 553.4 322.1Q552.2 321.7 550.7 321.7L550.7 321.7Q547.9 321.7 545.8 323.1Q543.7 324.5 542.5 327.1Q541.4 329.8 541.4 333.6L541.4 333.6Q541.4 337.4 542.5 340.0Q543.7 342.7 545.8 344.1Q547.9 345.5 550.8 345.5L550.8 345.5Q553.4 345.5 555.2 344.6Q557.1 343.6 558.1 341.9Q559.1 340.2 559.1 337.9L559.1 337.9L560.6 338.1L551.2 338.1L551.2 332.3L566.5 332.3L566.5 336.9Q566.5 341.7 564.4 345.2Q562.4 348.6 558.9 350.4Q555.3 352.3 550.7 352.3L550.7 352.3Q545.6 352.3 541.7 350.0Q537.9 347.8 535.7 343.6Q533.6 339.4 533.6 333.7L533.6 333.7Q533.6 329.2 534.8 325.8Q536.1 322.3 538.5 319.9Q540.8 317.5 543.9 316.2Q547.0 314.9 550.6 314.9L550.6 314.9Q553.7 314.9 556.3 315.8Q559.0 316.7 561.1 318.4Q563.1 320.0 564.4 322.2Q565.7 324.5 566.1 327.2L566.1 327.2ZM579.7 351.8L572.1 351.8L572.1 324.5L579.4 324.5L579.4 329.3L579.7 329.3Q580.4 326.7 582.2 325.4Q584.0 324.1 586.3 324.1L586.3 324.1Q586.8 324.1 587.5 324.2Q588.1 324.3 588.6 324.4L588.6 324.4L588.6 331.1Q588.1 331.0 587.2 330.8Q586.2 330.7 585.4 330.7L585.4 330.7Q583.8 330.7 582.5 331.4Q581.2 332.1 580.4 333.4Q579.7 334.7 579.7 336.4L579.7 336.4L579.7 351.8ZM599.5 352.3L599.5 352.3Q596.9 352.3 594.9 351.4Q592.8 350.5 591.7 348.7Q590.5 346.9 590.5 344.2L590.5 344.2Q590.5 341.9 591.3 340.4Q592.2 338.8 593.6 337.9Q595.0 336.9 596.9 336.5Q598.7 336.0 600.7 335.8L600.7 335.8Q603.1 335.5 604.6 335.3Q606.0 335.1 606.7 334.6Q607.3 334.2 607.3 333.3L607.3 333.3L607.3 333.2Q607.3 331.5 606.3 330.6Q605.2 329.7 603.3 329.7L603.3 329.7Q601.2 329.7 600.0 330.6Q598.8 331.5 598.4 332.8L598.4 332.8L591.4 332.3Q592.0 329.8 593.5 328.0Q595.1 326.1 597.6 325.2Q600.1 324.2 603.3 324.2L603.3 324.2Q605.6 324.2 607.7 324.7Q609.8 325.2 611.4 326.4Q613.0 327.5 614.0 329.2Q614.9 331.0 614.9 333.4L614.9 333.4L614.9 351.8L607.7 351.8L607.7 348.0L607.5 348.0Q606.9 349.3 605.8 350.3Q604.7 351.2 603.1 351.8Q601.6 352.3 599.5 352.3ZM601.7 347.1L601.7 347.1Q603.4 347.1 604.7 346.4Q605.9 345.8 606.7 344.6Q607.4 343.5 607.4 342.1L607.4 342.1L607.4 339.2Q607.0 339.4 606.4 339.6Q605.8 339.8 605.0 339.9Q604.3 340.1 603.5 340.2Q602.8 340.3 602.1 340.4L602.1 340.4Q600.8 340.6 599.8 341.0Q598.8 341.4 598.3 342.2Q597.7 342.9 597.7 343.9L597.7 343.9Q597.7 345.5 598.8 346.3Q600.0 347.1 601.7 347.1ZM630.8 352.2L630.8 352.2Q627.7 352.2 625.2 350.6Q622.7 349.0 621.2 345.9Q619.8 342.8 619.8 338.2L619.8 338.2Q619.8 333.5 621.3 330.4Q622.8 327.3 625.3 325.7Q627.8 324.2 630.8 324.2L630.8 324.2Q633.1 324.2 634.6 324.9Q636.2 325.7 637.1 326.9Q638.1 328.0 638.6 329.1L638.6 329.1L638.8 329.1L638.8 315.4L646.3 315.4L646.3 351.8L638.9 351.8L638.9 347.4L638.6 347.4Q638.0 348.6 637.1 349.7Q636.1 350.8 634.6 351.5Q633.0 352.2 630.8 352.2ZM633.2 346.2L633.2 346.2Q635.0 346.2 636.3 345.2Q637.6 344.2 638.3 342.4Q639.0 340.6 639.0 338.2L639.0 338.2Q639.0 335.7 638.3 333.9Q637.6 332.1 636.3 331.2Q635.0 330.2 633.2 330.2L633.2 330.2Q631.4 330.2 630.1 331.2Q628.8 332.2 628.1 334.0Q627.5 335.8 627.5 338.2L627.5 338.2Q627.5 340.5 628.2 342.4Q628.8 344.2 630.1 345.2Q631.4 346.2 633.2 346.2ZM660.1 351.8L652.5 351.8L652.5 324.5L660.1 324.5L660.1 351.8ZM656.3 321.0L656.3 321.0Q654.7 321.0 653.5 319.9Q652.3 318.8 652.3 317.2L652.3 317.2Q652.3 315.6 653.5 314.5Q654.7 313.4 656.3 313.4L656.3 313.4Q658.0 313.4 659.2 314.5Q660.4 315.6 660.4 317.2L660.4 317.2Q660.4 318.8 659.2 319.9Q658.0 321.0 656.3 321.0ZM678.6 352.3L678.6 352.3Q674.4 352.3 671.3 350.6Q668.3 348.9 666.7 345.8Q665.0 342.6 665.0 338.3L665.0 338.3Q665.0 334.1 666.7 330.9Q668.3 327.7 671.3 325.9Q674.3 324.2 678.3 324.2L678.3 324.2Q681.0 324.2 683.3 325.0Q685.6 325.9 687.4 327.6Q689.1 329.3 690.1 331.9Q691.1 334.5 691.1 338.0L691.1 338.0L691.1 340.1L668.1 340.1L668.1 335.4L684.0 335.4Q684.0 333.8 683.3 332.5Q682.5 331.3 681.3 330.5Q680.0 329.8 678.4 329.8L678.4 329.8Q676.7 329.8 675.3 330.6Q674.0 331.4 673.3 332.7Q672.5 334.0 672.5 335.7L672.5 335.7L672.5 340.1Q672.5 342.1 673.3 343.6Q674.0 345.1 675.4 345.9Q676.8 346.7 678.7 346.7L678.7 346.7Q680.0 346.7 681 346.3Q682.0 346.0 682.8 345.3Q683.5 344.6 683.9 343.5L683.9 343.5L690.9 344.0Q690.4 346.5 688.8 348.4Q687.1 350.3 684.5 351.3Q681.9 352.3 678.6 352.3ZM703.6 336.0L703.6 336.0L703.6 351.8L696.0 351.8L696.0 324.5L703.2 324.5L703.2 329.3L703.5 329.3Q704.5 327.0 706.6 325.6Q708.7 324.2 711.8 324.2L711.8 324.2Q714.6 324.2 716.7 325.4Q718.8 326.7 720.0 329.0Q721.2 331.3 721.2 334.4L721.2 334.4L721.2 351.8L713.6 351.8L713.6 335.8Q713.6 333.3 712.3 331.9Q711.0 330.5 708.8 330.5L708.8 330.5Q707.2 330.5 706.1 331.1Q704.9 331.8 704.3 333.0Q703.6 334.3 703.6 336.0ZM725.2 324.5L741.6 324.5L741.6 330.2L725.2 330.2L725.2 324.5ZM728.9 344.4L728.9 318.0L736.5 318.0L736.5 343.4Q736.5 344.5 736.8 345.0Q737.1 345.6 737.7 345.9Q738.3 346.1 739.0 346.1L739.0 346.1Q739.6 346.1 740.1 346.0Q740.6 345.9 740.9 345.8L740.9 345.8L742.1 351.5Q741.5 351.6 740.5 351.9Q739.5 352.1 738.0 352.2L738.0 352.2Q735.3 352.3 733.2 351.4Q731.2 350.6 730.0 348.9Q728.9 347.1 728.9 344.4L728.9 344.4Z "/></svg>